<?xml version="1.0" encoding="iso-8859-1"?>
<!-- Generator: Adobe Illustrator 19.0.0, SVG Export Plug-In . SVG Version: 6.00 Build 0)  -->
<svg version="1.1" id="Layer_1" xmlns="http://www.w3.org/2000/svg" xmlns:xlink="http://www.w3.org/1999/xlink" x="0px" y="0px"
	 viewBox="0 0 329.928 329.928" fill="#ffffff" xml:space="preserve">
<path id="XMLID_9_" d="M232.479,13.406c-24.561,0-48.827,9.248-67.512,25.279c-18.688-16.032-42.955-25.279-67.517-25.279
	C42.806,13.406,0,56.212,0,110.857C0,176.912,45.99,217.286,115.604,278.4c5.95,5.224,12.091,10.614,18.41,16.202
	c0.043,0.039,0.087,0.077,0.131,0.115l21.018,18.156c2.816,2.433,6.311,3.649,9.806,3.649s6.99-1.217,9.807-3.65l21.014-18.156
	c0.044-0.038,0.087-0.076,0.131-0.114c41.606-36.797,72.802-64.967,95.37-92.44c26.36-32.088,38.638-61.101,38.638-91.305
	C329.928,56.212,287.123,13.406,232.479,13.406z"/>
<g>
</g>
<g>
</g>
<g>
</g>
<g>
</g>
<g>
</g>
<g>
</g>
<g>
</g>
<g>
</g>
<g>
</g>
<g>
</g>
<g>
</g>
<g>
</g>
<g>
</g>
<g>
</g>
<g>
</g>
</svg>
