<?xml version="1.0" encoding="UTF-8"?>
<svg xmlns="http://www.w3.org/2000/svg" xmlns:xlink="http://www.w3.org/1999/xlink" width="67px" height="50px" viewBox="0 0 66 50" version="1.1">
<g id="surface1">
<path style=" stroke:none;fill-rule:nonzero;fill:rgb(70.980392%,70.980392%,70.980392%);fill-opacity:1;" d="M 50.789062 7.8125 L 15.210938 7.8125 C 13.929688 7.8125 12.890625 8.863281 12.890625 10.15625 L 12.890625 39.84375 C 12.890625 41.136719 13.929688 42.1875 15.210938 42.1875 L 50.789062 42.1875 C 52.070312 42.1875 53.109375 41.136719 53.109375 39.84375 L 53.109375 10.15625 C 53.109375 8.863281 52.070312 7.8125 50.789062 7.8125 Z M 48.46875 28.90625 L 41.050781 20.734375 C 40.769531 20.417969 40.367188 20.234375 39.945312 20.222656 C 39.523438 20.214844 39.117188 20.382812 38.820312 20.683594 L 30.546875 29.039062 L 38.921875 37.5 L 34.546875 37.5 L 27.132812 30.011719 C 26.527344 29.402344 25.550781 29.402344 24.945312 30.011719 L 17.53125 37.5 L 17.53125 12.5 L 48.46875 12.5 Z M 20.78125 19.53125 C 20.78125 18.015625 21.683594 16.648438 23.070312 16.066406 C 24.457031 15.484375 26.054688 15.808594 27.117188 16.878906 C 28.179688 17.953125 28.496094 19.566406 27.921875 20.964844 C 27.347656 22.367188 25.992188 23.28125 24.492188 23.28125 C 22.441406 23.28125 20.78125 21.601562 20.78125 19.53125 Z M 20.78125 19.53125 "/>
</g>
</svg>
